<?xml version="1.0" encoding="UTF-8"?>
<svg id="Layer_1" xmlns="http://www.w3.org/2000/svg" version="1.1" viewBox="0 0 129 127.3">
  <!-- Generator: Adobe Illustrator 29.0.1, SVG Export Plug-In . SVG Version: 2.1.0 Build 192)  -->
  <defs>
    <style>
      .st0 {
        fill: none;
        stroke: #000;
        stroke-miterlimit: 10;
        stroke-width: 9.5px;
      }
    </style>
  </defs>
  <path class="st0" d="M97.5,107c-9.6,9.6-22.8,15.5-37.5,15.5s-27.9-5.9-37.5-15.5-15.5-22.8-15.5-37.5,5.9-27.9,15.5-37.5,22.8-15.5,37.5-15.5,27.9,5.9,37.5,15.5,15.5,22.8,15.5,37.5"/>
  <g>
    <path d="M75.8,63.5c0-.4,0-.9,0-1.3v-7.9c0-8.8-7.1-15.9-15.9-15.9s-15.9,7.1-15.9,15.9v7.9c0,.4,0,.9,0,1.3h-4.2v29.3h40v-29.3h-4.2ZM49.6,63.5c0-.4,0-.8,0-1.3v-7.9c0-5.8,4.7-10.4,10.4-10.4s10.4,4.7,10.4,10.4v7.9c0,.4,0,.9,0,1.3h-20.7Z"/>
    <path d="M107.9,63.3h-9l7,12.1,7,12.1,7-12.1,7-12.1h-9.5"/>
  </g>
</svg>