<?xml version="1.0" encoding="UTF-8"?>
<svg id="Layer_1" xmlns="http://www.w3.org/2000/svg" version="1.1" viewBox="0 0 129 127.3">
  <!-- Generator: Adobe Illustrator 29.0.1, SVG Export Plug-In . SVG Version: 2.1.0 Build 192)  -->
  <defs>
    <style>
      .st0 {
        fill: #231f20;
      }

      .st1 {
        fill: #fff;
        stroke: #231f20;
        stroke-linecap: round;
        stroke-miterlimit: 10;
        stroke-width: 5px;
      }
    </style>
  </defs>
  <path d="M112.4,66.8c0-24.6-18.5-44.9-42.3-47.9v9s-12.1-7-12.1-7l-12.1-7,12.1-7L70.1,0v9.5c29,3.1,51.7,27.6,51.7,57.4"/>
  <path class="st0" d="M7.3,85.8v27.1c0,7.9,6.4,14.3,14.3,14.3h67.2c7.9,0,14.3-6.4,14.3-14.3v-27.1c0-7.9-6.4-14.3-14.3-14.3h-31.7v6h31.7c4.6,0,8.3,3.7,8.3,8.3v27.1c0,4.6-3.7,8.3-8.3,8.3H21.6c-2.3,0-4.4-.9-5.9-2.4-.4-.4-.7-.8-1-1.2s-.6-.9-.8-1.4c-.4-1-.7-2.1-.7-3.2v-27.1"/>
  <circle class="st0" cx="35.2" cy="44" r="3"/>
  <line class="st1" x1="24.6" y1="114.1" x2="45.7" y2="114.1"/>
  <path class="st0" d="M48.7,37.4c4.6,0,8.3,3.7,8.3,8.3v67.2c0,4.6-3.7,8.3-8.3,8.3h-27.1c-4.6,0-8.3-3.7-8.3-8.3V45.7c0-4.6,3.7-8.3,8.3-8.3h27.1M48.7,31.4h-27.1c-7.9,0-14.3,6.4-14.3,14.3v67.2c0,7.9,6.4,14.3,14.3,14.3h27.1c7.9,0,14.3-6.4,14.3-14.3V45.7c0-7.9-6.4-14.3-14.3-14.3h0Z"/>
</svg>