<?xml version="1.0" encoding="UTF-8"?>
<svg id="Layer_1" xmlns="http://www.w3.org/2000/svg" version="1.1" viewBox="0 0 129 127.3">
  <!-- Generator: Adobe Illustrator 29.0.1, SVG Export Plug-In . SVG Version: 2.1.0 Build 192)  -->
  <defs>
    <style>
      .st0 {
        fill: #231f20;
      }

      .st1 {
        fill: #fff;
        stroke: #231f20;
        stroke-linecap: round;
        stroke-miterlimit: 10;
        stroke-width: 5px;
      }
    </style>
  </defs>
  <path d="M62.2,20.8c24.6,0,44.9,18.5,47.9,42.3h-9l7,12.1,7,12.1,7-12.1,7-12.1h-9.5c-3.1-29-27.6-51.7-57.4-51.7"/>
  <path class="st0" d="M6,112.9v-27.1s0,0,0,0v-40.1c0-4.6,3.7-8.3,8.3-8.3h27.1c4.6,0,8.3,3.7,8.3,8.3v31.7h6v-31.7c0-7.9-6.4-14.3-14.3-14.3H14.3C6.4,31.4,0,37.8,0,45.7v67.2"/>
  <circle class="st0" cx="83.2" cy="99.4" r="3"/>
  <path class="st0" d="M81.5,77.5c4.6,0,8.3,3.7,8.3,8.3v27.1c0,4.6-3.7,8.3-8.3,8.3H14.3c-4.6,0-8.3-3.7-8.3-8.3v-27.1c0-4.6,3.7-8.3,8.3-8.3h67.2M81.5,71.5H14.3C6.4,71.5,0,77.9,0,85.8v27.1C0,120.8,6.4,127.3,14.3,127.3h67.2c7.9,0,14.3-6.4,14.3-14.3v-27.1c0-7.9-6.4-14.3-14.3-14.3h0Z"/>
  <line class="st1" x1="13.2" y1="88.8" x2="13.2" y2="109.9"/>
</svg>