<?xml version="1.0" encoding="UTF-8"?>
<svg id="Layer_1" xmlns="http://www.w3.org/2000/svg" version="1.1" viewBox="0 0 129 127.3">
  <!-- Generator: Adobe Illustrator 29.0.1, SVG Export Plug-In . SVG Version: 2.1.0 Build 192)  -->
  <path d="M75.9,63.5c0-.4,0-.9,0-1.3v-7.9c0-8.8-7.1-15.9-15.9-15.9s-15.9,7.1-15.9,15.9v7.9c0,.4,0,.9,0,1.3h-4.2v29.3h40v-29.3h-4.2ZM49.7,63.5c0-.4,0-.8,0-1.3v-7.9c0-5.8,4.7-10.4,10.4-10.4s10.4,4.7,10.4,10.4v7.9c0,.4,0,.9,0,1.3h-20.7Z"/>
  <path d="M117.4,63.3c-3.1-29-27.6-51.7-57.4-51.7S2.2,37.6,2.2,69.5s25.9,57.8,57.8,57.8,30.2-6.4,40.6-16.7l-6.6-6.6c-8.7,8.6-20.7,14-34,14-26.7,0-48.4-21.7-48.4-48.4S33.3,21.1,60,21.1s44.9,18.5,47.9,42.3h-9l7,12.1,7,12.1,7-12.1,7-12.1h-9.5Z"/>
</svg>